<svg xmlns="http://www.w3.org/2000/svg" xmlns:xlink="http://www.w3.org/1999/xlink" width="200" zoomAndPan="magnify" viewBox="0 0 150 37.5" height="50" preserveAspectRatio="xMidYMid meet" version="1.2"><defs><clipPath id="fb32d54f22"><path d="M 3 6 L 32 6 L 32 34 L 3 34 Z M 3 6 "/></clipPath><clipPath id="56758a01e3"><path d="M 5.140625 2.78125 L 33.738281 6.703125 L 29.617188 36.765625 L 1.019531 32.84375 Z M 5.140625 2.78125 "/></clipPath><clipPath id="a6a842186a"><path d="M 5.140625 2.78125 L 33.738281 6.703125 L 29.617188 36.765625 L 1.019531 32.84375 Z M 5.140625 2.78125 "/></clipPath><clipPath id="c87013c9ef"><rect x="0" width="112" y="0" height="31"/></clipPath></defs><g id="88a55fc2f1"><g clip-rule="nonzero" clip-path="url(#fb32d54f22)"><g clip-rule="nonzero" clip-path="url(#56758a01e3)"><g clip-rule="nonzero" clip-path="url(#a6a842186a)"><path style=" stroke:none;fill-rule:nonzero;fill:#2f82ff;fill-opacity:1;" d="M 31.335938 14.023438 C 30.269531 11.890625 27.839844 11.753906 25.851562 12.347656 C 21.816406 13.550781 17.640625 16.917969 14.832031 19.988281 C 17.609375 18.613281 20.71875 17.011719 23.621094 16.007812 C 24.558594 15.6875 25.539062 15.398438 26.492188 15.257812 C 26.945312 15.195312 27.386719 15.171875 27.726562 15.214844 C 27.894531 15.238281 28.035156 15.273438 28.125 15.316406 C 28.167969 15.335938 28.199219 15.355469 28.21875 15.375 C 28.238281 15.390625 28.246094 15.40625 28.246094 15.414062 C 28.460938 17.113281 26.089844 20.046875 24.9375 21.34375 C 23.230469 23.25 21.328125 24.996094 19.296875 26.5625 C 18.804688 26.957031 18.265625 27.308594 17.753906 27.679688 C 17.460938 27.867188 16.914062 28.214844 16.621094 28.40625 C 14.019531 29.976562 11.195312 31.246094 8.246094 32.113281 C 6.835938 32.527344 5.386719 32.867188 3.917969 33.003906 L 3.507812 33.042969 C 5.652344 33.714844 7.941406 33.675781 10.160156 33.453125 C 10.960938 33.363281 11.871094 33.199219 12.664062 33.035156 C 14.039062 32.734375 15.414062 32.300781 16.730469 31.792969 C 17.179688 31.605469 17.664062 31.390625 18.109375 31.199219 C 18.460938 31.023438 19.109375 30.703125 19.453125 30.527344 C 20.078125 30.164062 20.710938 29.828125 21.304688 29.417969 C 21.304688 29.417969 22.027344 28.9375 22.027344 28.9375 C 25.070312 26.789062 27.859375 24.203125 29.914062 21.070312 C 31.144531 19.125 32.472656 16.359375 31.335938 14.023438 Z M 3.460938 25.765625 C 2.328125 23.429688 3.65625 20.664062 4.886719 18.714844 C 6.9375 15.582031 9.730469 12.996094 12.769531 10.847656 L 13.492188 10.367188 C 14.085938 9.960938 14.722656 9.621094 15.34375 9.261719 C 15.691406 9.082031 16.339844 8.761719 16.691406 8.585938 C 17.136719 8.394531 17.621094 8.179688 18.066406 7.996094 C 19.382812 7.488281 20.761719 7.050781 22.136719 6.75 C 22.925781 6.585938 23.835938 6.425781 24.636719 6.332031 C 26.859375 6.109375 29.148438 6.070312 31.292969 6.746094 C 31.292969 6.746094 30.878906 6.78125 30.878906 6.78125 C 29.414062 6.917969 27.964844 7.257812 26.554688 7.675781 C 23.601562 8.539062 20.78125 9.808594 18.175781 11.378906 C 17.882812 11.570312 17.339844 11.917969 17.046875 12.105469 C 16.535156 12.476562 15.992188 12.828125 15.503906 13.222656 C 13.46875 14.789062 11.570312 16.535156 9.859375 18.445312 C 8.707031 19.738281 6.339844 22.671875 6.550781 24.371094 C 6.554688 24.382812 6.5625 24.394531 6.578125 24.414062 C 6.597656 24.429688 6.632812 24.449219 6.675781 24.472656 C 6.765625 24.511719 6.902344 24.546875 7.074219 24.570312 C 7.414062 24.613281 7.851562 24.59375 8.304688 24.527344 C 9.261719 24.390625 10.242188 24.101562 11.175781 23.777344 C 14.082031 22.777344 17.191406 21.171875 19.96875 19.796875 C 17.15625 22.867188 12.980469 26.234375 8.949219 27.4375 C 6.960938 28.03125 4.53125 27.894531 3.460938 25.765625 "/></g></g></g><g transform="matrix(1,0,0,1,37,2)"><g clip-path="url(#c87013c9ef)"><g style="fill:#ffffff;fill-opacity:1;"><g transform="translate(0.622244, 23.519903)"><path style="stroke:none" d="M 1.21875 0 L 1.21875 -11.703125 L 4.296875 -11.703125 L 4.296875 -10.828125 C 4.710938 -11.191406 5.175781 -11.46875 5.6875 -11.65625 C 6.195312 -11.84375 6.75 -11.9375 7.34375 -11.9375 C 8.09375 -11.9375 8.769531 -11.78125 9.375 -11.46875 C 9.988281 -11.164062 10.488281 -10.734375 10.875 -10.171875 C 11.34375 -10.742188 11.90625 -11.179688 12.5625 -11.484375 C 13.21875 -11.785156 13.941406 -11.9375 14.734375 -11.9375 C 16.035156 -11.9375 17.101562 -11.5 17.9375 -10.625 C 18.78125 -9.757812 19.203125 -8.644531 19.203125 -7.28125 L 19.203125 0 L 16.125 0 L 16.125 -6.828125 C 16.125 -7.566406 15.925781 -8.160156 15.53125 -8.609375 C 15.132812 -9.054688 14.601562 -9.28125 13.9375 -9.28125 C 13.46875 -9.28125 13.039062 -9.175781 12.65625 -8.96875 C 12.28125 -8.769531 11.957031 -8.484375 11.6875 -8.109375 C 11.695312 -7.972656 11.707031 -7.835938 11.71875 -7.703125 C 11.738281 -7.566406 11.75 -7.425781 11.75 -7.28125 L 11.75 0 L 8.671875 0 L 8.671875 -6.828125 C 8.671875 -7.566406 8.472656 -8.160156 8.078125 -8.609375 C 7.679688 -9.054688 7.144531 -9.28125 6.46875 -9.28125 C 6.007812 -9.28125 5.597656 -9.1875 5.234375 -9 C 4.878906 -8.820312 4.566406 -8.5625 4.296875 -8.21875 L 4.296875 0 Z M 1.21875 0 "/></g></g><g style="fill:#ffffff;fill-opacity:1;"><g transform="translate(20.307992, 23.519903)"><path style="stroke:none" d="M 2.734375 -13.09375 C 2.253906 -13.09375 1.84375 -13.265625 1.5 -13.609375 C 1.15625 -13.960938 0.984375 -14.378906 0.984375 -14.859375 C 0.984375 -15.335938 1.15625 -15.75 1.5 -16.09375 C 1.84375 -16.4375 2.253906 -16.609375 2.734375 -16.609375 C 3.210938 -16.609375 3.625 -16.4375 3.96875 -16.09375 C 4.320312 -15.75 4.5 -15.335938 4.5 -14.859375 C 4.5 -14.378906 4.320312 -13.960938 3.96875 -13.609375 C 3.625 -13.265625 3.210938 -13.09375 2.734375 -13.09375 Z M 4.296875 -11.703125 L 4.296875 0 L 1.21875 0 L 1.21875 -11.703125 Z M 4.296875 -11.703125 "/></g></g><g style="fill:#ffffff;fill-opacity:1;"><g transform="translate(25.116987, 23.519903)"><path style="stroke:none" d="M 4.296875 -16.40625 L 4.296875 0 L 1.21875 0 L 1.21875 -15.734375 Z M 4.296875 -16.40625 "/></g></g><g style="fill:#ffffff;fill-opacity:1;"><g transform="translate(29.925982, 23.519903)"><path style="stroke:none" d="M 4.296875 -16.40625 L 4.296875 0 L 1.21875 0 L 1.21875 -15.734375 Z M 4.296875 -16.40625 "/></g></g><g style="fill:#ffffff;fill-opacity:1;"><g transform="translate(34.734977, 23.519903)"><path style="stroke:none" d="M 2.734375 -13.09375 C 2.253906 -13.09375 1.84375 -13.265625 1.5 -13.609375 C 1.15625 -13.960938 0.984375 -14.378906 0.984375 -14.859375 C 0.984375 -15.335938 1.15625 -15.75 1.5 -16.09375 C 1.84375 -16.4375 2.253906 -16.609375 2.734375 -16.609375 C 3.210938 -16.609375 3.625 -16.4375 3.96875 -16.09375 C 4.320312 -15.75 4.5 -15.335938 4.5 -14.859375 C 4.5 -14.378906 4.320312 -13.960938 3.96875 -13.609375 C 3.625 -13.265625 3.210938 -13.09375 2.734375 -13.09375 Z M 4.296875 -11.703125 L 4.296875 0 L 1.21875 0 L 1.21875 -11.703125 Z M 4.296875 -11.703125 "/></g></g><g style="fill:#ffffff;fill-opacity:1;"><g transform="translate(39.543971, 23.519903)"><path style="stroke:none" d="M 0.671875 -5.84375 C 0.671875 -6.695312 0.832031 -7.492188 1.15625 -8.234375 C 1.476562 -8.972656 1.921875 -9.613281 2.484375 -10.15625 C 3.046875 -10.707031 3.707031 -11.140625 4.46875 -11.453125 C 5.238281 -11.773438 6.054688 -11.9375 6.921875 -11.9375 C 7.785156 -11.9375 8.597656 -11.773438 9.359375 -11.453125 C 10.128906 -11.140625 10.796875 -10.707031 11.359375 -10.15625 C 11.921875 -9.613281 12.363281 -8.972656 12.6875 -8.234375 C 13.007812 -7.492188 13.171875 -6.695312 13.171875 -5.84375 C 13.171875 -4.988281 13.007812 -4.191406 12.6875 -3.453125 C 12.363281 -2.710938 11.921875 -2.070312 11.359375 -1.53125 C 10.796875 -0.988281 10.128906 -0.5625 9.359375 -0.25 C 8.597656 0.0625 7.785156 0.21875 6.921875 0.21875 C 6.054688 0.21875 5.238281 0.0625 4.46875 -0.25 C 3.707031 -0.5625 3.046875 -0.988281 2.484375 -1.53125 C 1.921875 -2.070312 1.476562 -2.710938 1.15625 -3.453125 C 0.832031 -4.191406 0.671875 -4.988281 0.671875 -5.84375 Z M 6.921875 -2.453125 C 7.816406 -2.453125 8.578125 -2.78125 9.203125 -3.4375 C 9.835938 -4.09375 10.15625 -4.894531 10.15625 -5.84375 C 10.15625 -6.800781 9.835938 -7.609375 9.203125 -8.265625 C 8.578125 -8.921875 7.816406 -9.25 6.921875 -9.25 C 6.023438 -9.25 5.257812 -8.921875 4.625 -8.265625 C 4 -7.609375 3.6875 -6.800781 3.6875 -5.84375 C 3.6875 -4.894531 4 -4.09375 4.625 -3.4375 C 5.257812 -2.78125 6.023438 -2.453125 6.921875 -2.453125 Z M 6.921875 -2.453125 "/></g></g><g style="fill:#ffffff;fill-opacity:1;"><g transform="translate(52.712715, 23.519903)"><path style="stroke:none" d="M 1.21875 0 L 1.21875 -11.703125 L 4.296875 -11.703125 L 4.296875 -10.78125 C 4.742188 -11.15625 5.238281 -11.441406 5.78125 -11.640625 C 6.332031 -11.835938 6.929688 -11.9375 7.578125 -11.9375 C 8.921875 -11.9375 10.023438 -11.5 10.890625 -10.625 C 11.765625 -9.757812 12.203125 -8.644531 12.203125 -7.28125 L 12.203125 0 L 9.125 0 L 9.125 -6.828125 C 9.125 -7.566406 8.898438 -8.160156 8.453125 -8.609375 C 8.015625 -9.054688 7.429688 -9.28125 6.703125 -9.28125 C 6.191406 -9.28125 5.726562 -9.175781 5.3125 -8.96875 C 4.90625 -8.769531 4.566406 -8.484375 4.296875 -8.109375 L 4.296875 0 Z M 1.21875 0 "/></g></g><g style="fill:#ffffff;fill-opacity:1;"><g transform="translate(65.364592, 23.519903)"><path style="stroke:none" d="M 1.21875 0 L 1.21875 -11.703125 L 4.296875 -11.703125 L 4.296875 -10.421875 C 4.671875 -10.929688 5.125 -11.316406 5.65625 -11.578125 C 6.1875 -11.835938 6.773438 -11.96875 7.421875 -11.96875 C 7.710938 -11.957031 7.957031 -11.929688 8.15625 -11.890625 C 8.363281 -11.859375 8.546875 -11.796875 8.703125 -11.703125 L 8.703125 -9.015625 C 8.472656 -9.117188 8.222656 -9.195312 7.953125 -9.25 C 7.679688 -9.300781 7.40625 -9.328125 7.125 -9.328125 C 6.519531 -9.328125 5.96875 -9.175781 5.46875 -8.875 C 4.96875 -8.570312 4.578125 -8.140625 4.296875 -7.578125 L 4.296875 0 Z M 1.21875 0 "/></g></g><g style="fill:#ffffff;fill-opacity:1;"><g transform="translate(73.836596, 23.519903)"><path style="stroke:none" d="M 11.703125 -1.453125 C 10.984375 -0.867188 10.242188 -0.441406 9.484375 -0.171875 C 8.734375 0.0859375 7.894531 0.21875 6.96875 0.21875 C 6.082031 0.21875 5.253906 0.0625 4.484375 -0.25 C 3.710938 -0.5625 3.046875 -0.988281 2.484375 -1.53125 C 1.921875 -2.070312 1.476562 -2.710938 1.15625 -3.453125 C 0.832031 -4.191406 0.671875 -4.988281 0.671875 -5.84375 C 0.671875 -6.675781 0.820312 -7.460938 1.125 -8.203125 C 1.4375 -8.953125 1.863281 -9.597656 2.40625 -10.140625 C 2.945312 -10.691406 3.585938 -11.125 4.328125 -11.4375 C 5.066406 -11.75 5.859375 -11.90625 6.703125 -11.90625 C 7.523438 -11.90625 8.289062 -11.742188 9 -11.421875 C 9.707031 -11.097656 10.316406 -10.660156 10.828125 -10.109375 C 11.347656 -9.554688 11.753906 -8.894531 12.046875 -8.125 C 12.347656 -7.351562 12.5 -6.519531 12.5 -5.625 L 12.5 -4.8125 L 3.78125 -4.8125 C 3.988281 -4.070312 4.390625 -3.476562 4.984375 -3.03125 C 5.585938 -2.582031 6.289062 -2.359375 7.09375 -2.359375 C 7.601562 -2.359375 8.082031 -2.441406 8.53125 -2.609375 C 8.988281 -2.773438 9.375 -3.003906 9.6875 -3.296875 Z M 6.625 -9.375 C 5.925781 -9.375 5.320312 -9.160156 4.8125 -8.734375 C 4.300781 -8.304688 3.945312 -7.734375 3.75 -7.015625 L 9.484375 -7.015625 C 9.285156 -7.703125 8.925781 -8.265625 8.40625 -8.703125 C 7.894531 -9.148438 7.300781 -9.375 6.625 -9.375 Z M 6.625 -9.375 "/></g></g><g style="fill:#ffffff;fill-opacity:1;"><g transform="translate(86.331165, 23.519903)"><path style="stroke:none" d="M 1.21875 4.703125 L 1.21875 -11.703125 L 4.25 -11.703125 L 4.25 -10.734375 C 4.707031 -11.109375 5.222656 -11.390625 5.796875 -11.578125 C 6.367188 -11.765625 6.960938 -11.859375 7.578125 -11.859375 C 8.398438 -11.859375 9.171875 -11.703125 9.890625 -11.390625 C 10.617188 -11.078125 11.253906 -10.648438 11.796875 -10.109375 C 12.335938 -9.566406 12.757812 -8.925781 13.0625 -8.1875 C 13.375 -7.457031 13.53125 -6.675781 13.53125 -5.84375 C 13.53125 -5 13.367188 -4.207031 13.046875 -3.46875 C 12.734375 -2.738281 12.304688 -2.101562 11.765625 -1.5625 C 11.234375 -1.03125 10.59375 -0.609375 9.84375 -0.296875 C 9.101562 0.00390625 8.316406 0.15625 7.484375 0.15625 C 6.910156 0.15625 6.347656 0.078125 5.796875 -0.078125 C 5.253906 -0.234375 4.753906 -0.460938 4.296875 -0.765625 L 4.296875 4.703125 Z M 7.078125 -9.234375 C 6.523438 -9.234375 6.007812 -9.140625 5.53125 -8.953125 C 5.050781 -8.765625 4.640625 -8.492188 4.296875 -8.140625 L 4.296875 -3.53125 C 4.617188 -3.195312 5.023438 -2.929688 5.515625 -2.734375 C 6.003906 -2.546875 6.523438 -2.453125 7.078125 -2.453125 C 8.035156 -2.453125 8.84375 -2.773438 9.5 -3.421875 C 10.164062 -4.078125 10.5 -4.882812 10.5 -5.84375 C 10.5 -6.800781 10.164062 -7.601562 9.5 -8.25 C 8.832031 -8.90625 8.023438 -9.234375 7.078125 -9.234375 Z M 7.078125 -9.234375 "/></g></g><g style="fill:#ffffff;fill-opacity:1;"><g transform="translate(99.859466, 23.519903)"><path style="stroke:none" d="M 0.21875 -1.390625 L 1.75 -3.4375 C 2.4375 -2.988281 3.085938 -2.65625 3.703125 -2.4375 C 4.316406 -2.21875 4.929688 -2.109375 5.546875 -2.109375 C 6.234375 -2.109375 6.78125 -2.21875 7.1875 -2.4375 C 7.601562 -2.664062 7.8125 -2.96875 7.8125 -3.34375 C 7.8125 -3.644531 7.695312 -3.882812 7.46875 -4.0625 C 7.238281 -4.25 6.867188 -4.378906 6.359375 -4.453125 L 4.109375 -4.78125 C 2.953125 -4.96875 2.070312 -5.34375 1.46875 -5.90625 C 0.863281 -6.476562 0.5625 -7.234375 0.5625 -8.171875 C 0.5625 -9.296875 1.003906 -10.195312 1.890625 -10.875 C 2.773438 -11.550781 3.957031 -11.890625 5.4375 -11.890625 C 6.289062 -11.890625 7.117188 -11.765625 7.921875 -11.515625 C 8.734375 -11.265625 9.507812 -10.898438 10.25 -10.421875 L 8.765625 -8.453125 C 8.117188 -8.828125 7.503906 -9.109375 6.921875 -9.296875 C 6.335938 -9.484375 5.742188 -9.578125 5.140625 -9.578125 C 4.585938 -9.578125 4.140625 -9.46875 3.796875 -9.25 C 3.460938 -9.039062 3.296875 -8.765625 3.296875 -8.421875 C 3.296875 -8.109375 3.421875 -7.863281 3.671875 -7.6875 C 3.921875 -7.519531 4.328125 -7.398438 4.890625 -7.328125 L 7.140625 -6.984375 C 8.285156 -6.816406 9.164062 -6.441406 9.78125 -5.859375 C 10.40625 -5.273438 10.71875 -4.535156 10.71875 -3.640625 C 10.71875 -3.085938 10.585938 -2.570312 10.328125 -2.09375 C 10.066406 -1.625 9.707031 -1.21875 9.25 -0.875 C 8.800781 -0.53125 8.265625 -0.257812 7.640625 -0.0625 C 7.015625 0.125 6.332031 0.21875 5.59375 0.21875 C 4.53125 0.21875 3.535156 0.0820312 2.609375 -0.1875 C 1.679688 -0.46875 0.882812 -0.867188 0.21875 -1.390625 Z M 0.21875 -1.390625 "/></g></g></g></g></g></svg>