<svg xmlns="http://www.w3.org/2000/svg" xmlns:xlink="http://www.w3.org/1999/xlink" width="500" zoomAndPan="magnify" viewBox="0 0 375 374.999991" height="500" preserveAspectRatio="xMidYMid meet" version="1.2"><defs><clipPath id="a63cc081c9"><path d="M 27 157 L 92 157 L 92 218 L 27 218 Z M 27 157 "/></clipPath><clipPath id="9240debf96"><path d="M 32.089844 149.429688 L 95.992188 158.191406 L 86.722656 225.808594 L 22.820312 217.050781 Z M 32.089844 149.429688 "/></clipPath><clipPath id="afa17623b3"><path d="M 32.089844 149.429688 L 95.992188 158.191406 L 86.722656 225.808594 L 22.820312 217.050781 Z M 32.089844 149.429688 "/></clipPath></defs><g id="72d70a0b52"><g clip-rule="nonzero" clip-path="url(#a63cc081c9)"><g clip-rule="nonzero" clip-path="url(#9240debf96)"><g clip-rule="nonzero" clip-path="url(#afa17623b3)"><path style=" stroke:none;fill-rule:nonzero;fill:#2f82ff;fill-opacity:1;" d="M 90.359375 174.4375 C 87.980469 169.695312 82.578125 169.394531 78.15625 170.714844 C 69.183594 173.390625 59.894531 180.878906 53.644531 187.707031 C 59.820312 184.652344 66.738281 181.082031 73.195312 178.855469 C 75.277344 178.136719 77.460938 177.492188 79.585938 177.183594 C 80.59375 177.042969 81.566406 176.996094 82.328125 177.089844 C 82.703125 177.140625 83.011719 177.222656 83.214844 177.3125 C 83.308594 177.359375 83.382812 177.402344 83.425781 177.441406 C 83.464844 177.484375 83.480469 177.511719 83.484375 177.53125 C 83.957031 181.3125 78.691406 187.835938 76.125 190.71875 C 72.328125 194.964844 68.097656 198.847656 63.578125 202.332031 C 62.484375 203.210938 61.28125 203.996094 60.140625 204.820312 C 59.488281 205.234375 58.28125 206.007812 57.628906 206.433594 C 51.835938 209.925781 45.558594 212.753906 38.992188 214.675781 C 35.859375 215.597656 32.628906 216.355469 29.371094 216.660156 L 28.453125 216.746094 C 33.226562 218.238281 38.316406 218.160156 43.253906 217.660156 C 45.035156 217.457031 47.0625 217.097656 48.820312 216.730469 C 51.882812 216.058594 54.941406 215.09375 57.867188 213.964844 C 58.863281 213.550781 59.941406 213.070312 60.933594 212.644531 C 61.714844 212.257812 63.15625 211.542969 63.925781 211.148438 C 65.3125 210.347656 66.722656 209.59375 68.046875 208.683594 C 68.046875 208.683594 69.652344 207.617188 69.652344 207.617188 C 76.417969 202.839844 82.625 197.082031 87.191406 190.113281 C 89.929688 185.785156 92.886719 179.632812 90.359375 174.4375 Z M 28.355469 200.554688 C 25.828125 195.359375 28.785156 189.207031 31.523438 184.878906 C 36.085938 177.910156 42.292969 172.152344 49.0625 167.375 L 50.667969 166.308594 C 51.988281 165.398438 53.402344 164.644531 54.785156 163.84375 C 55.558594 163.449219 57 162.734375 57.777344 162.347656 C 58.773438 161.921875 59.847656 161.441406 60.84375 161.027344 C 63.769531 159.898438 66.832031 158.933594 69.890625 158.261719 C 71.648438 157.894531 73.675781 157.535156 75.457031 157.328125 C 80.394531 156.832031 85.488281 156.753906 90.257812 158.246094 C 90.257812 158.246094 89.34375 158.332031 89.34375 158.332031 C 86.082031 158.636719 82.855469 159.394531 79.722656 160.316406 C 73.152344 162.238281 66.878906 165.066406 61.085938 168.558594 C 60.433594 168.984375 59.222656 169.757812 58.574219 170.171875 C 57.429688 170.996094 56.226562 171.78125 55.136719 172.660156 C 50.617188 176.144531 46.386719 180.027344 42.589844 184.273438 C 40.019531 187.15625 34.753906 193.679688 35.226562 197.460938 C 35.230469 197.480469 35.25 197.507812 35.289062 197.550781 C 35.328125 197.589844 35.40625 197.632812 35.5 197.679688 C 35.703125 197.769531 36.007812 197.851562 36.386719 197.902344 C 37.144531 197.996094 38.117188 197.949219 39.128906 197.808594 C 41.25 197.5 43.433594 196.855469 45.515625 196.136719 C 51.972656 193.910156 58.890625 190.339844 65.066406 187.285156 C 58.820312 194.113281 49.527344 201.601562 40.554688 204.277344 C 36.132812 205.597656 30.730469 205.296875 28.355469 200.554688 "/></g></g></g><g style="fill:#2f393e;fill-opacity:1;"><g transform="translate(104.3493, 200.015905)"><path style="stroke:none" d="M 2.703125 0 L 2.703125 -26.046875 L 9.546875 -26.046875 L 9.546875 -24.09375 C 10.484375 -24.894531 11.515625 -25.503906 12.640625 -25.921875 C 13.773438 -26.335938 15.007812 -26.546875 16.34375 -26.546875 C 18.007812 -26.546875 19.519531 -26.203125 20.875 -25.515625 C 22.226562 -24.835938 23.335938 -23.882812 24.203125 -22.65625 C 25.234375 -23.914062 26.484375 -24.878906 27.953125 -25.546875 C 29.421875 -26.210938 31.035156 -26.546875 32.796875 -26.546875 C 35.703125 -26.546875 38.085938 -25.578125 39.953125 -23.640625 C 41.816406 -21.710938 42.75 -19.234375 42.75 -16.203125 L 42.75 0 L 35.90625 0 L 35.90625 -15.203125 C 35.90625 -16.835938 35.460938 -18.15625 34.578125 -19.15625 C 33.691406 -20.15625 32.5 -20.65625 31 -20.65625 C 29.96875 -20.65625 29.023438 -20.425781 28.171875 -19.96875 C 27.328125 -19.519531 26.601562 -18.878906 26 -18.046875 C 26.03125 -17.742188 26.0625 -17.441406 26.09375 -17.140625 C 26.132812 -16.847656 26.15625 -16.535156 26.15625 -16.203125 L 26.15625 0 L 19.296875 0 L 19.296875 -15.203125 C 19.296875 -16.835938 18.851562 -18.15625 17.96875 -19.15625 C 17.09375 -20.15625 15.90625 -20.65625 14.40625 -20.65625 C 13.363281 -20.65625 12.441406 -20.453125 11.640625 -20.046875 C 10.847656 -19.648438 10.148438 -19.066406 9.546875 -18.296875 L 9.546875 0 Z M 2.703125 0 "/></g></g><g style="fill:#2f393e;fill-opacity:1;"><g transform="translate(148.142289, 200.015905)"><path style="stroke:none" d="M 6.09375 -29.15625 C 5.03125 -29.15625 4.113281 -29.535156 3.34375 -30.296875 C 2.582031 -31.066406 2.203125 -31.984375 2.203125 -33.046875 C 2.203125 -34.117188 2.582031 -35.035156 3.34375 -35.796875 C 4.113281 -36.566406 5.03125 -36.953125 6.09375 -36.953125 C 7.164062 -36.953125 8.082031 -36.566406 8.84375 -35.796875 C 9.613281 -35.035156 10 -34.117188 10 -33.046875 C 10 -31.984375 9.613281 -31.066406 8.84375 -30.296875 C 8.082031 -29.535156 7.164062 -29.15625 6.09375 -29.15625 Z M 9.546875 -26.046875 L 9.546875 0 L 2.703125 0 L 2.703125 -26.046875 Z M 9.546875 -26.046875 "/></g></g><g style="fill:#2f393e;fill-opacity:1;"><g transform="translate(158.840397, 200.015905)"><path style="stroke:none" d="M 9.546875 -36.5 L 9.546875 0 L 2.703125 0 L 2.703125 -35 Z M 9.546875 -36.5 "/></g></g><g style="fill:#2f393e;fill-opacity:1;"><g transform="translate(169.538505, 200.015905)"><path style="stroke:none" d="M 9.546875 -36.5 L 9.546875 0 L 2.703125 0 L 2.703125 -35 Z M 9.546875 -36.5 "/></g></g><g style="fill:#2f393e;fill-opacity:1;"><g transform="translate(180.236613, 200.015905)"><path style="stroke:none" d="M 6.09375 -29.15625 C 5.03125 -29.15625 4.113281 -29.535156 3.34375 -30.296875 C 2.582031 -31.066406 2.203125 -31.984375 2.203125 -33.046875 C 2.203125 -34.117188 2.582031 -35.035156 3.34375 -35.796875 C 4.113281 -36.566406 5.03125 -36.953125 6.09375 -36.953125 C 7.164062 -36.953125 8.082031 -36.566406 8.84375 -35.796875 C 9.613281 -35.035156 10 -34.117188 10 -33.046875 C 10 -31.984375 9.613281 -31.066406 8.84375 -30.296875 C 8.082031 -29.535156 7.164062 -29.15625 6.09375 -29.15625 Z M 9.546875 -26.046875 L 9.546875 0 L 2.703125 0 L 2.703125 -26.046875 Z M 9.546875 -26.046875 "/></g></g><g style="fill:#2f393e;fill-opacity:1;"><g transform="translate(190.934721, 200.015905)"><path style="stroke:none" d="M 1.5 -13 C 1.5 -14.894531 1.859375 -16.664062 2.578125 -18.3125 C 3.296875 -19.96875 4.28125 -21.40625 5.53125 -22.625 C 6.78125 -23.84375 8.253906 -24.800781 9.953125 -25.5 C 11.648438 -26.195312 13.46875 -26.546875 15.40625 -26.546875 C 17.332031 -26.546875 19.144531 -26.195312 20.84375 -25.5 C 22.550781 -24.800781 24.03125 -23.84375 25.28125 -22.625 C 26.53125 -21.40625 27.507812 -19.96875 28.21875 -18.3125 C 28.9375 -16.664062 29.296875 -14.894531 29.296875 -13 C 29.296875 -11.101562 28.9375 -9.328125 28.21875 -7.671875 C 27.507812 -6.023438 26.53125 -4.597656 25.28125 -3.390625 C 24.03125 -2.191406 22.550781 -1.242188 20.84375 -0.546875 C 19.144531 0.148438 17.332031 0.5 15.40625 0.5 C 13.46875 0.5 11.648438 0.148438 9.953125 -0.546875 C 8.253906 -1.242188 6.78125 -2.191406 5.53125 -3.390625 C 4.28125 -4.597656 3.296875 -6.023438 2.578125 -7.671875 C 1.859375 -9.328125 1.5 -11.101562 1.5 -13 Z M 15.40625 -5.453125 C 17.40625 -5.453125 19.101562 -6.179688 20.5 -7.640625 C 21.894531 -9.109375 22.59375 -10.894531 22.59375 -13 C 22.59375 -15.132812 21.894531 -16.929688 20.5 -18.390625 C 19.101562 -19.859375 17.40625 -20.59375 15.40625 -20.59375 C 13.40625 -20.59375 11.703125 -19.859375 10.296875 -18.390625 C 8.898438 -16.929688 8.203125 -15.132812 8.203125 -13 C 8.203125 -10.894531 8.898438 -9.109375 10.296875 -7.640625 C 11.703125 -6.179688 13.40625 -5.453125 15.40625 -5.453125 Z M 15.40625 -5.453125 "/></g></g><g style="fill:#2f393e;fill-opacity:1;"><g transform="translate(220.229958, 200.015905)"><path style="stroke:none" d="M 2.703125 0 L 2.703125 -26.046875 L 9.546875 -26.046875 L 9.546875 -24 C 10.546875 -24.832031 11.65625 -25.460938 12.875 -25.890625 C 14.09375 -26.328125 15.414062 -26.546875 16.84375 -26.546875 C 19.84375 -26.546875 22.3125 -25.578125 24.25 -23.640625 C 26.1875 -21.710938 27.15625 -19.234375 27.15625 -16.203125 L 27.15625 0 L 20.296875 0 L 20.296875 -15.203125 C 20.296875 -16.835938 19.800781 -18.15625 18.8125 -19.15625 C 17.832031 -20.15625 16.53125 -20.65625 14.90625 -20.65625 C 13.769531 -20.65625 12.742188 -20.425781 11.828125 -19.96875 C 10.910156 -19.519531 10.148438 -18.878906 9.546875 -18.046875 L 9.546875 0 Z M 2.703125 0 "/></g></g><g style="fill:#2f393e;fill-opacity:1;"><g transform="translate(248.375372, 200.015905)"><path style="stroke:none" d="M 2.703125 0 L 2.703125 -26.046875 L 9.546875 -26.046875 L 9.546875 -23.203125 C 10.378906 -24.335938 11.382812 -25.195312 12.5625 -25.78125 C 13.75 -26.363281 15.0625 -26.65625 16.5 -26.65625 C 17.164062 -26.613281 17.722656 -26.550781 18.171875 -26.46875 C 18.617188 -26.382812 19.007812 -26.242188 19.34375 -26.046875 L 19.34375 -20.046875 C 18.84375 -20.285156 18.289062 -20.460938 17.6875 -20.578125 C 17.09375 -20.691406 16.476562 -20.75 15.84375 -20.75 C 14.507812 -20.75 13.285156 -20.414062 12.171875 -19.75 C 11.054688 -19.082031 10.179688 -18.113281 9.546875 -16.84375 L 9.546875 0 Z M 2.703125 0 "/></g></g><g style="fill:#2f393e;fill-opacity:1;"><g transform="translate(267.222222, 200.015905)"><path style="stroke:none" d="M 26.046875 -3.25 C 24.453125 -1.945312 22.8125 -0.992188 21.125 -0.390625 C 19.4375 0.203125 17.5625 0.5 15.5 0.5 C 13.53125 0.5 11.6875 0.148438 9.96875 -0.546875 C 8.257812 -1.242188 6.78125 -2.191406 5.53125 -3.390625 C 4.28125 -4.597656 3.296875 -6.023438 2.578125 -7.671875 C 1.859375 -9.328125 1.5 -11.101562 1.5 -13 C 1.5 -14.863281 1.835938 -16.617188 2.515625 -18.265625 C 3.203125 -19.921875 4.144531 -21.359375 5.34375 -22.578125 C 6.550781 -23.796875 7.976562 -24.753906 9.625 -25.453125 C 11.269531 -26.148438 13.03125 -26.5 14.90625 -26.5 C 16.738281 -26.5 18.445312 -26.140625 20.03125 -25.421875 C 21.613281 -24.703125 22.976562 -23.726562 24.125 -22.5 C 25.269531 -21.269531 26.164062 -19.796875 26.8125 -18.078125 C 27.46875 -16.359375 27.796875 -14.5 27.796875 -12.5 L 27.796875 -10.703125 L 8.40625 -10.703125 C 8.863281 -9.066406 9.757812 -7.75 11.09375 -6.75 C 12.425781 -5.75 13.992188 -5.25 15.796875 -5.25 C 16.929688 -5.25 18 -5.429688 19 -5.796875 C 20 -6.160156 20.847656 -6.675781 21.546875 -7.34375 Z M 14.75 -20.84375 C 13.1875 -20.84375 11.835938 -20.367188 10.703125 -19.421875 C 9.566406 -18.472656 8.78125 -17.195312 8.34375 -15.59375 L 21.09375 -15.59375 C 20.664062 -17.132812 19.875 -18.394531 18.71875 -19.375 C 17.570312 -20.351562 16.25 -20.84375 14.75 -20.84375 Z M 14.75 -20.84375 "/></g></g><g style="fill:#2f393e;fill-opacity:1;"><g transform="translate(295.017688, 200.015905)"><path style="stroke:none" d="M 2.703125 10.453125 L 2.703125 -26.046875 L 9.453125 -26.046875 L 9.453125 -23.90625 C 10.484375 -24.738281 11.628906 -25.363281 12.890625 -25.78125 C 14.160156 -26.195312 15.476562 -26.40625 16.84375 -26.40625 C 18.675781 -26.40625 20.398438 -26.050781 22.015625 -25.34375 C 23.640625 -24.644531 25.050781 -23.695312 26.25 -22.5 C 27.445312 -21.300781 28.382812 -19.882812 29.0625 -18.25 C 29.75 -16.613281 30.09375 -14.863281 30.09375 -13 C 30.09375 -11.132812 29.742188 -9.382812 29.046875 -7.75 C 28.347656 -6.113281 27.398438 -4.695312 26.203125 -3.5 C 25.003906 -2.300781 23.578125 -1.359375 21.921875 -0.671875 C 20.273438 0.00390625 18.519531 0.34375 16.65625 0.34375 C 15.382812 0.34375 14.140625 0.171875 12.921875 -0.171875 C 11.703125 -0.523438 10.578125 -1.035156 9.546875 -1.703125 L 9.546875 10.453125 Z M 15.75 -20.546875 C 14.519531 -20.546875 13.367188 -20.335938 12.296875 -19.921875 C 11.234375 -19.503906 10.316406 -18.894531 9.546875 -18.09375 L 9.546875 -7.84375 C 10.285156 -7.113281 11.195312 -6.53125 12.28125 -6.09375 C 13.363281 -5.664062 14.519531 -5.453125 15.75 -5.453125 C 17.882812 -5.453125 19.679688 -6.175781 21.140625 -7.625 C 22.609375 -9.070312 23.34375 -10.863281 23.34375 -13 C 23.34375 -15.132812 22.601562 -16.925781 21.125 -18.375 C 19.644531 -19.820312 17.851562 -20.546875 15.75 -20.546875 Z M 15.75 -20.546875 "/></g></g><g style="fill:#2f393e;fill-opacity:1;"><g transform="translate(325.112798, 200.015905)"><path style="stroke:none" d="M 0.5 -3.09375 L 3.90625 -7.65625 C 5.4375 -6.65625 6.882812 -5.910156 8.25 -5.421875 C 9.613281 -4.941406 10.976562 -4.703125 12.34375 -4.703125 C 13.882812 -4.703125 15.113281 -4.953125 16.03125 -5.453125 C 16.945312 -5.953125 17.40625 -6.617188 17.40625 -7.453125 C 17.40625 -8.117188 17.144531 -8.648438 16.625 -9.046875 C 16.101562 -9.453125 15.28125 -9.738281 14.15625 -9.90625 L 9.15625 -10.65625 C 6.582031 -11.050781 4.617188 -11.878906 3.265625 -13.140625 C 1.921875 -14.410156 1.25 -16.097656 1.25 -18.203125 C 1.25 -20.703125 2.234375 -22.703125 4.203125 -24.203125 C 6.171875 -25.703125 8.800781 -26.453125 12.09375 -26.453125 C 14 -26.453125 15.847656 -26.175781 17.640625 -25.625 C 19.441406 -25.070312 21.160156 -24.265625 22.796875 -23.203125 L 19.5 -18.796875 C 18.0625 -19.628906 16.691406 -20.253906 15.390625 -20.671875 C 14.097656 -21.085938 12.785156 -21.296875 11.453125 -21.296875 C 10.210938 -21.296875 9.21875 -21.0625 8.46875 -20.59375 C 7.71875 -20.132812 7.34375 -19.519531 7.34375 -18.75 C 7.34375 -18.050781 7.617188 -17.507812 8.171875 -17.125 C 8.722656 -16.738281 9.632812 -16.460938 10.90625 -16.296875 L 15.90625 -15.546875 C 18.4375 -15.179688 20.390625 -14.347656 21.765625 -13.046875 C 23.148438 -11.742188 23.84375 -10.09375 23.84375 -8.09375 C 23.84375 -6.863281 23.550781 -5.722656 22.96875 -4.671875 C 22.382812 -3.617188 21.59375 -2.707031 20.59375 -1.9375 C 19.59375 -1.175781 18.394531 -0.578125 17 -0.140625 C 15.601562 0.285156 14.085938 0.5 12.453125 0.5 C 10.085938 0.5 7.867188 0.191406 5.796875 -0.421875 C 3.734375 -1.035156 1.96875 -1.925781 0.5 -3.09375 Z M 0.5 -3.09375 "/></g></g></g></svg>